<svg id="Grupo_151" data-name="Grupo 151" xmlns="http://www.w3.org/2000/svg" xmlns:xlink="http://www.w3.org/1999/xlink" width="711.378" height="510.83" viewBox="0 0 711.378 510.83">
  <defs>
    <linearGradient id="linear-gradient" x1="0.5" y1="1" x2="0.5" gradientUnits="objectBoundingBox">
      <stop offset="0" stop-color="gray" stop-opacity="0.251"/>
      <stop offset="0.535" stop-color="gray" stop-opacity="0.122"/>
      <stop offset="1" stop-color="gray" stop-opacity="0.102"/>
    </linearGradient>
  </defs>
  <ellipse id="Elipse_178" data-name="Elipse 178" cx="355.689" cy="43.233" rx="355.689" ry="43.233" transform="translate(0 424.363)" opacity="0.02"/>
  <path id="Caminho_427" data-name="Caminho 427" d="M496.064,109.088c-35.147-1.22-68.622-12.567-100.587-24.981s-63.628-26.168-97.933-32.745c-22.065-4.231-47.3-4.829-65.076,7-17.108,11.384-22.636,31.035-25.608,49.269-2.236,13.719-3.551,28.157,2.576,41,4.254,8.916,11.807,16.411,17.03,24.952,18.174,29.718,5.328,66.363-14.367,95.379-9.239,13.611-19.955,26.6-27.084,41.086s-10.427,31.092-4.19,45.872c6.182,14.65,20.916,25.654,36.875,33.394,32.414,15.719,70.611,20.219,107.858,22.767,82.45,5.641,165.341,3.2,248.01.753,30.594-.905,61.323-1.822,91.42-6.553,16.713-2.627,33.969-6.8,46.1-16.863,15.4-12.779,19.222-34.417,8.9-50.439-17.313-26.877-65.183-33.552-77.284-62.4-6.661-15.877.18-33.561,9.859-48.286,20.766-31.587,55.572-59.3,57.405-95.4,1.259-24.8-15.473-49.631-41.344-61.363-27.118-12.3-64.722-10.751-84.728,9.606C563.3,102.1,527.1,110.165,496.064,109.088Z" transform="translate(-90.656 -48.59)" opacity="0.02"/>
  <ellipse id="Elipse_179" data-name="Elipse 179" cx="23.897" cy="25.366" rx="23.897" ry="25.366" transform="translate(321.333 397.473)" fill="#fbd56f"/>
  <ellipse id="Elipse_180" data-name="Elipse 180" cx="23.897" cy="25.366" rx="23.897" ry="25.366" transform="translate(321.333 397.473)" opacity="0.1"/>
  <ellipse id="Elipse_181" data-name="Elipse 181" cx="23.897" cy="24.801" rx="23.897" ry="24.801" transform="translate(325.457 398.603)" fill="#fbd56f"/>
  <path id="Caminho_428" data-name="Caminho 428" d="M603.345,748.219l-2.486-1.384a30.109,30.109,0,0,0-.783,8.31,1.722,1.722,0,0,0,1.294,1.488c5.718,1.42,32.973,7.47,51.715-1.051a1.72,1.72,0,0,0,1-1.382,25.745,25.745,0,0,0-.909-7.364C652.474,745,603.345,748.219,603.345,748.219Z" transform="translate(-244.311 -302.339)" fill="#fbd56f"/>
  <path id="Caminho_429" data-name="Caminho 429" d="M603.345,748.219l-2.486-1.384a30.109,30.109,0,0,0-.783,8.31,1.722,1.722,0,0,0,1.294,1.488c5.718,1.42,32.973,7.47,51.715-1.051a1.72,1.72,0,0,0,1-1.382,25.745,25.745,0,0,0-.909-7.364C652.474,745,603.345,748.219,603.345,748.219Z" transform="translate(-244.311 -302.339)" opacity="0.1"/>
  <ellipse id="Elipse_182" data-name="Elipse 182" cx="26.157" cy="5.896" rx="26.157" ry="5.896" transform="translate(356.548 438.599)" fill="#fbd56f"/>
  <path id="Caminho_430" data-name="Caminho 430" d="M619.05,734.547l-2.486-1.384a30.111,30.111,0,0,0-.783,8.31,1.722,1.722,0,0,0,1.294,1.488c5.718,1.42,32.973,7.47,51.715-1.051a1.72,1.72,0,0,0,1-1.382,25.748,25.748,0,0,0-.909-7.364C668.18,731.325,619.05,734.547,619.05,734.547Z" transform="translate(-250.023 -297.367)" fill="#fbd56f"/>
  <path id="Caminho_431" data-name="Caminho 431" d="M619.05,734.547l-2.486-1.384a30.111,30.111,0,0,0-.783,8.31,1.722,1.722,0,0,0,1.294,1.488c5.718,1.42,32.973,7.47,51.715-1.051a1.72,1.72,0,0,0,1-1.382,25.748,25.748,0,0,0-.909-7.364C668.18,731.325,619.05,734.547,619.05,734.547Z" transform="translate(-250.023 -297.367)" opacity="0.1"/>
  <ellipse id="Elipse_183" data-name="Elipse 183" cx="26.157" cy="5.896" rx="26.157" ry="5.896" transform="translate(366.541 429.9)" fill="#fbd56f"/>
  <path id="Caminho_432" data-name="Caminho 432" d="M632.935,716.579l-2.486-1.384a30.111,30.111,0,0,0-.783,8.31,1.723,1.723,0,0,0,1.294,1.488c5.718,1.42,32.973,7.47,51.715-1.051a1.72,1.72,0,0,0,1-1.382,25.747,25.747,0,0,0-.909-7.364C682.064,713.356,632.935,716.579,632.935,716.579Z" transform="translate(-255.073 -290.832)" fill="#fbd56f"/>
  <path id="Caminho_433" data-name="Caminho 433" d="M632.935,716.579l-2.486-1.384a30.111,30.111,0,0,0-.783,8.31,1.723,1.723,0,0,0,1.294,1.488c5.718,1.42,32.973,7.47,51.715-1.051a1.72,1.72,0,0,0,1-1.382,25.747,25.747,0,0,0-.909-7.364C682.064,713.356,632.935,716.579,632.935,716.579Z" transform="translate(-255.073 -290.832)" opacity="0.1"/>
  <ellipse id="Elipse_184" data-name="Elipse 184" cx="26.157" cy="5.896" rx="26.157" ry="5.896" transform="translate(375.376 418.467)" fill="#fbd56f"/>
  <path id="Caminho_434" data-name="Caminho 434" d="M617.559,697.873l-2.486-1.384a30.112,30.112,0,0,0-.783,8.31,1.722,1.722,0,0,0,1.294,1.488c5.718,1.42,32.973,7.47,51.715-1.051a1.72,1.72,0,0,0,1-1.382,25.75,25.75,0,0,0-.909-7.364C666.688,694.65,617.559,697.873,617.559,697.873Z" transform="translate(-249.481 -284.028)" fill="#fbd56f"/>
  <path id="Caminho_435" data-name="Caminho 435" d="M617.559,697.873l-2.486-1.384a30.112,30.112,0,0,0-.783,8.31,1.722,1.722,0,0,0,1.294,1.488c5.718,1.42,32.973,7.47,51.715-1.051a1.72,1.72,0,0,0,1-1.382,25.75,25.75,0,0,0-.909-7.364C666.688,694.65,617.559,697.873,617.559,697.873Z" transform="translate(-249.481 -284.028)" opacity="0.1"/>
  <ellipse id="Elipse_185" data-name="Elipse 185" cx="26.157" cy="5.896" rx="26.157" ry="5.896" transform="translate(365.592 406.565)" fill="#fbd56f"/>
  <path id="Caminho_436" data-name="Caminho 436" d="M652.15,682.862l-2.486-1.384a30.114,30.114,0,0,0-.783,8.31,1.722,1.722,0,0,0,1.294,1.488c5.718,1.42,32.973,7.47,51.715-1.051a1.72,1.72,0,0,0,1-1.382,25.746,25.746,0,0,0-.909-7.364C701.279,679.639,652.15,682.862,652.15,682.862Z" transform="translate(-262.062 -278.569)" fill="#fbd56f"/>
  <path id="Caminho_437" data-name="Caminho 437" d="M652.15,682.862l-2.486-1.384a30.114,30.114,0,0,0-.783,8.31,1.722,1.722,0,0,0,1.294,1.488c5.718,1.42,32.973,7.47,51.715-1.051a1.72,1.72,0,0,0,1-1.382,25.746,25.746,0,0,0-.909-7.364C701.279,679.639,652.15,682.862,652.15,682.862Z" transform="translate(-262.062 -278.569)" opacity="0.1"/>
  <ellipse id="Elipse_186" data-name="Elipse 186" cx="26.157" cy="5.896" rx="26.157" ry="5.896" transform="translate(387.602 397.013)" fill="#fbd56f"/>
  <path id="Caminho_438" data-name="Caminho 438" d="M628.778,672.772l-2.486-1.384a30.111,30.111,0,0,0-.783,8.31,1.722,1.722,0,0,0,1.294,1.488c5.718,1.42,32.973,7.47,51.715-1.051a1.72,1.72,0,0,0,1-1.382,25.747,25.747,0,0,0-.909-7.364C677.908,669.55,628.778,672.772,628.778,672.772Z" transform="translate(-253.561 -274.899)" fill="#fbd56f"/>
  <path id="Caminho_439" data-name="Caminho 439" d="M628.778,672.772l-2.486-1.384a30.111,30.111,0,0,0-.783,8.31,1.722,1.722,0,0,0,1.294,1.488c5.718,1.42,32.973,7.47,51.715-1.051a1.72,1.72,0,0,0,1-1.382,25.747,25.747,0,0,0-.909-7.364C677.908,669.55,628.778,672.772,628.778,672.772Z" transform="translate(-253.561 -274.899)" opacity="0.1"/>
  <ellipse id="Elipse_187" data-name="Elipse 187" cx="26.157" cy="5.896" rx="26.157" ry="5.896" transform="translate(372.731 390.593)" fill="#fbd56f"/>
  <path id="Caminho_440" data-name="Caminho 440" d="M644.382,653.294,641.9,651.91a30.109,30.109,0,0,0-.783,8.31,1.722,1.722,0,0,0,1.294,1.488c5.718,1.42,32.973,7.47,51.715-1.051a1.72,1.72,0,0,0,1-1.382,25.751,25.751,0,0,0-.909-7.364C693.511,650.072,644.382,653.294,644.382,653.294Z" transform="translate(-259.237 -267.815)" fill="#fbd56f"/>
  <path id="Caminho_441" data-name="Caminho 441" d="M644.382,653.294,641.9,651.91a30.109,30.109,0,0,0-.783,8.31,1.722,1.722,0,0,0,1.294,1.488c5.718,1.42,32.973,7.47,51.715-1.051a1.72,1.72,0,0,0,1-1.382,25.751,25.751,0,0,0-.909-7.364C693.511,650.072,644.382,653.294,644.382,653.294Z" transform="translate(-259.237 -267.815)" opacity="0.1"/>
  <ellipse id="Elipse_188" data-name="Elipse 188" cx="26.157" cy="5.896" rx="26.157" ry="5.896" transform="translate(382.66 378.199)" fill="#fbd56f"/>
  <path id="Caminho_442" data-name="Caminho 442" d="M652.079,630.174l-2.486-1.384a30.11,30.11,0,0,0-.783,8.31,1.722,1.722,0,0,0,1.294,1.488c5.718,1.42,32.973,7.47,51.715-1.051a1.72,1.72,0,0,0,1-1.382,25.749,25.749,0,0,0-.909-7.364C701.208,626.952,652.079,630.174,652.079,630.174Z" transform="translate(-262.036 -259.406)" fill="#fbd56f"/>
  <path id="Caminho_443" data-name="Caminho 443" d="M652.079,630.174l-2.486-1.384a30.11,30.11,0,0,0-.783,8.31,1.722,1.722,0,0,0,1.294,1.488c5.718,1.42,32.973,7.47,51.715-1.051a1.72,1.72,0,0,0,1-1.382,25.749,25.749,0,0,0-.909-7.364C701.208,626.952,652.079,630.174,652.079,630.174Z" transform="translate(-262.036 -259.406)" opacity="0.1"/>
  <ellipse id="Elipse_189" data-name="Elipse 189" cx="26.157" cy="5.896" rx="26.157" ry="5.896" transform="translate(387.557 363.488)" fill="#fbd56f"/>
  <path id="Caminho_444" data-name="Caminho 444" d="M721.474,753.581l-2.486-1.384a30.111,30.111,0,0,0-.783,8.31,1.722,1.722,0,0,0,1.294,1.488c5.718,1.42,32.973,7.47,51.715-1.051a1.72,1.72,0,0,0,1-1.382,25.747,25.747,0,0,0-.909-7.364C770.6,750.358,721.474,753.581,721.474,753.581Z" transform="translate(-287.276 -304.289)" fill="#fbd56f"/>
  <path id="Caminho_445" data-name="Caminho 445" d="M721.474,753.581l-2.486-1.384a30.111,30.111,0,0,0-.783,8.31,1.722,1.722,0,0,0,1.294,1.488c5.718,1.42,32.973,7.47,51.715-1.051a1.72,1.72,0,0,0,1-1.382,25.747,25.747,0,0,0-.909-7.364C770.6,750.358,721.474,753.581,721.474,753.581Z" transform="translate(-287.276 -304.289)" opacity="0.1"/>
  <ellipse id="Elipse_190" data-name="Elipse 190" cx="26.157" cy="5.896" rx="26.157" ry="5.896" transform="translate(431.712 442.012)" fill="#fbd56f"/>
  <path id="Caminho_446" data-name="Caminho 446" d="M735.358,735.612l-2.486-1.384a30.112,30.112,0,0,0-.783,8.31,1.722,1.722,0,0,0,1.294,1.488c5.718,1.42,32.973,7.47,51.715-1.051a1.72,1.72,0,0,0,1-1.382,25.753,25.753,0,0,0-.909-7.364C784.488,732.39,735.358,735.612,735.358,735.612Z" transform="translate(-292.325 -297.754)" fill="#fbd56f"/>
  <path id="Caminho_447" data-name="Caminho 447" d="M735.358,735.612l-2.486-1.384a30.112,30.112,0,0,0-.783,8.31,1.722,1.722,0,0,0,1.294,1.488c5.718,1.42,32.973,7.47,51.715-1.051a1.72,1.72,0,0,0,1-1.382,25.753,25.753,0,0,0-.909-7.364C784.488,732.39,735.358,735.612,735.358,735.612Z" transform="translate(-292.325 -297.754)" opacity="0.1"/>
  <ellipse id="Elipse_191" data-name="Elipse 191" cx="26.157" cy="5.896" rx="26.157" ry="5.896" transform="translate(440.547 430.578)" fill="#fbd56f"/>
  <path id="Caminho_448" data-name="Caminho 448" d="M719.982,716.907l-2.486-1.384a30.112,30.112,0,0,0-.783,8.31,1.722,1.722,0,0,0,1.294,1.488c5.718,1.42,32.973,7.47,51.715-1.051a1.72,1.72,0,0,0,1-1.382,25.756,25.756,0,0,0-.909-7.364C769.111,713.684,719.982,716.907,719.982,716.907Z" transform="translate(-286.733 -290.951)" fill="#fbd56f"/>
  <path id="Caminho_449" data-name="Caminho 449" d="M719.982,716.907l-2.486-1.384a30.112,30.112,0,0,0-.783,8.31,1.722,1.722,0,0,0,1.294,1.488c5.718,1.42,32.973,7.47,51.715-1.051a1.72,1.72,0,0,0,1-1.382,25.756,25.756,0,0,0-.909-7.364C769.111,713.684,719.982,716.907,719.982,716.907Z" transform="translate(-286.733 -290.951)" opacity="0.1"/>
  <ellipse id="Elipse_192" data-name="Elipse 192" cx="26.157" cy="5.896" rx="26.157" ry="5.896" transform="translate(430.764 418.676)" fill="#fbd56f"/>
  <path id="Caminho_450" data-name="Caminho 450" d="M754.573,701.9l-2.486-1.384a30.111,30.111,0,0,0-.783,8.31,1.723,1.723,0,0,0,1.294,1.488c5.718,1.42,32.973,7.47,51.715-1.051a1.72,1.72,0,0,0,1-1.382,25.747,25.747,0,0,0-.909-7.364C803.7,698.673,754.573,701.9,754.573,701.9Z" transform="translate(-299.314 -285.491)" fill="#fbd56f"/>
  <path id="Caminho_451" data-name="Caminho 451" d="M754.573,701.9l-2.486-1.384a30.111,30.111,0,0,0-.783,8.31,1.723,1.723,0,0,0,1.294,1.488c5.718,1.42,32.973,7.47,51.715-1.051a1.72,1.72,0,0,0,1-1.382,25.747,25.747,0,0,0-.909-7.364C803.7,698.673,754.573,701.9,754.573,701.9Z" transform="translate(-299.314 -285.491)" opacity="0.1"/>
  <ellipse id="Elipse_193" data-name="Elipse 193" cx="26.157" cy="5.896" rx="26.157" ry="5.896" transform="translate(452.774 409.124)" fill="#fbd56f"/>
  <path id="Caminho_452" data-name="Caminho 452" d="M731.2,691.806l-2.486-1.384a30.112,30.112,0,0,0-.783,8.31,1.723,1.723,0,0,0,1.294,1.488c5.718,1.42,32.973,7.47,51.715-1.051a1.72,1.72,0,0,0,1-1.382,25.749,25.749,0,0,0-.909-7.364C780.331,688.584,731.2,691.806,731.2,691.806Z" transform="translate(-290.814 -281.822)" fill="#fbd56f"/>
  <path id="Caminho_453" data-name="Caminho 453" d="M731.2,691.806l-2.486-1.384a30.112,30.112,0,0,0-.783,8.31,1.723,1.723,0,0,0,1.294,1.488c5.718,1.42,32.973,7.47,51.715-1.051a1.72,1.72,0,0,0,1-1.382,25.749,25.749,0,0,0-.909-7.364C780.331,688.584,731.2,691.806,731.2,691.806Z" transform="translate(-290.814 -281.822)" opacity="0.1"/>
  <ellipse id="Elipse_194" data-name="Elipse 194" cx="26.157" cy="5.896" rx="26.157" ry="5.896" transform="translate(437.902 402.704)" fill="#fbd56f"/>
  <path id="Caminho_454" data-name="Caminho 454" d="M746.805,672.328l-2.486-1.384a30.113,30.113,0,0,0-.783,8.31,1.722,1.722,0,0,0,1.294,1.488c5.718,1.42,32.973,7.47,51.715-1.051a1.72,1.72,0,0,0,1-1.382,25.75,25.75,0,0,0-.909-7.364C795.935,669.1,746.805,672.328,746.805,672.328Z" transform="translate(-296.488 -274.737)" fill="#fbd56f"/>
  <path id="Caminho_455" data-name="Caminho 455" d="M746.805,672.328l-2.486-1.384a30.113,30.113,0,0,0-.783,8.31,1.722,1.722,0,0,0,1.294,1.488c5.718,1.42,32.973,7.47,51.715-1.051a1.72,1.72,0,0,0,1-1.382,25.75,25.75,0,0,0-.909-7.364C795.935,669.1,746.805,672.328,746.805,672.328Z" transform="translate(-296.488 -274.737)" opacity="0.1"/>
  <ellipse id="Elipse_195" data-name="Elipse 195" cx="26.157" cy="5.896" rx="26.157" ry="5.896" transform="translate(447.831 390.311)" fill="#fbd56f"/>
  <path id="Caminho_456" data-name="Caminho 456" d="M754.5,649.208l-2.486-1.384a30.109,30.109,0,0,0-.783,8.31,1.722,1.722,0,0,0,1.294,1.488c5.718,1.42,32.973,7.47,51.715-1.051a1.72,1.72,0,0,0,1-1.382,25.741,25.741,0,0,0-.909-7.364C803.632,645.985,754.5,649.208,754.5,649.208Z" transform="translate(-299.288 -266.328)" fill="#fbd56f"/>
  <path id="Caminho_457" data-name="Caminho 457" d="M754.5,649.208l-2.486-1.384a30.109,30.109,0,0,0-.783,8.31,1.722,1.722,0,0,0,1.294,1.488c5.718,1.42,32.973,7.47,51.715-1.051a1.72,1.72,0,0,0,1-1.382,25.741,25.741,0,0,0-.909-7.364C803.632,645.985,754.5,649.208,754.5,649.208Z" transform="translate(-299.288 -266.328)" opacity="0.1"/>
  <ellipse id="Elipse_196" data-name="Elipse 196" cx="26.157" cy="5.896" rx="26.157" ry="5.896" transform="translate(452.729 375.6)" fill="#fbd56f"/>
  <path id="Caminho_458" data-name="Caminho 458" d="M908.018,633.7c-3.641-.128-3.771-1.54-8.452-3.978-2.642-1.375-6.655-5.371-9.646-8.587q-.359-.387-.7-.755c.791-.017,1.239-.026,1.239-.026s-1.17-10.265-.13-12.7.26-16.938.26-16.938.65-11.035-.52-13.6.39-18.991.39-18.991,1.04-9.752,1.3-29.641-11.443-20.531-11.443-20.531-1.56-.121-3.93-.346l-.71-.068c1.534-3.212,2.429-5.616,2.429-5.616s-1.951-18.606-2.471-21.814S872,463.678,872,463.678s-2.211-5.646-3.511-9.624-5.2-8.6-5.2-8.6-7.022-13.858-8.973-15.911c-.905-.952-2.174-2.153-3.274-3.167-.2-.183-.388-.356-.572-.525a23.244,23.244,0,0,0,.466-4.393s-7.282-7.186-7.8-8.982-7.411-8.469-7.411-8.469-3.9-7.186-8.322-7.314a36.063,36.063,0,0,0-6.262.19c.908-3.361,1.982-6.882,2.946-9.9.107-.337.213-.665.317-.988a22.269,22.269,0,0,0,7.988-9.662c.092-.208.176-.419.259-.63.047,0,.093.009.14.008a3.493,3.493,0,0,0,.547-.05c1.456-.25,2.687-1.894,2.016-3.191a.476.476,0,0,0,.424.233c.485-.016,1.077-.718,1.191-1.335.02-.107.03-.215.047-.323.021-.134.043-.268.059-.4s.024-.253.035-.38.021-.262.028-.393.01-.245.012-.368c0-.141,0-.283,0-.424,0-.113,0-.226-.009-.339-.008-.172-.022-.344-.038-.515-.006-.07-.008-.141-.016-.211v.01a11.523,11.523,0,0,0-.419-2.069c-.719-2.385-2.226-4.75-1.645-7.172.006-.026.018-.05.025-.076v0c.484-1.879,2.11-3.244,3.1-4.923.095-.16.178-.325.26-.491.015-.03.033-.059.048-.09.06-.125.11-.253.163-.381.034-.082.071-.163.1-.246.042-.112.076-.226.113-.339s.068-.206.1-.311.051-.2.075-.3c.029-.122.058-.245.081-.368.017-.089.03-.178.044-.267.022-.14.042-.281.057-.422.008-.077.014-.153.02-.23.012-.158.021-.315.025-.473,0-.063,0-.127,0-.19q0-.259-.013-.519c0-.052-.006-.1-.009-.156-.013-.184-.032-.368-.056-.551,0-.027,0-.053-.008-.08v.007a9.248,9.248,0,0,0-1.862-4.423,11.4,11.4,0,0,0-9.36-4.048,15.679,15.679,0,0,1-2.943.054,9.722,9.722,0,0,1-4.314-2.278l-10.892-8.39a13.441,13.441,0,0,0-4.117-2.448,4.6,4.6,0,0,0-4.524.816c-2.039,2.013-.743,5.476-1.562,8.2-.709,2.364-2.992,3.965-5.355,4.764s-4.892.974-7.321,1.552a4.04,4.04,0,0,0-1.959.9,3.79,3.79,0,0,0-.851,2.728,14.71,14.71,0,0,0,1.691,6.939c.459.871,1.015,1.752,1.5,2.645.04.074.08.148.119.222.055.1.109.2.161.308q.127.25.242.5c.033.072.063.145.094.218q.077.178.146.357c.029.076.057.152.084.228.049.14.093.281.133.422a4.7,4.7,0,0,1,.071,2.559,9.5,9.5,0,0,1-2.4,3.519,6.845,6.845,0,0,0-1.6,2.974l0,.025a2.389,2.389,0,0,0-.029.784c0,.033.009.065.015.1a1.372,1.372,0,0,0,.048.172,1.179,1.179,0,0,0,.051.12,1.112,1.112,0,0,0,.068.133,1.021,1.021,0,0,0,.165.2,1.089,1.089,0,0,0,.091.068,1.105,1.105,0,0,0,.167.1c.036.018.072.034.111.049a1.535,1.535,0,0,0,.266.073c.026,0,.047.013.074.017a2.442,2.442,0,0,0,.418.018c.04,0,.084-.006.126-.009a3.971,3.971,0,0,0,.4-.051c.049-.009.1-.016.147-.027.192-.04.393-.088.614-.157a13.766,13.766,0,0,0,2.124-.84c0,.078-.006.155-.006.234,0,.135,0,.276.013.411a21.624,21.624,0,0,0,1.4,7.36,22.228,22.228,0,0,0,6.781,9.37q-.056.332-.124.668c-.627,3.077-1.938,6.164-2.746,5.926a11.028,11.028,0,0,0-2.411-.264c-.246-.007-.483-.011-.709-.012h0a9.617,9.617,0,0,0-2.211,0,2.4,2.4,0,0,1-.967-.133,13.19,13.19,0,0,0-6.5-.364c-4.5.921-11.337,2.607-13.212,4.624-2.861,3.08-7.022,6.031-11.7,18.862,0,0-2.341,7.827-4.161,8.854a12.154,12.154,0,0,1,1.235-.555,3.3,3.3,0,0,1-.975,1.069,14.348,14.348,0,0,1,2.048-.854c-1.421,8.36.683,32.274.683,32.274s-1.69,4.124.52,6.562a12.357,12.357,0,0,1,2.393,5.307l-.32.5v0c-1.17,1.814-2.736,4.18-3.763,5.484-1.821,2.31-1.3,9.624-1.3,9.624s-.39,3.465-1.69,4.748-1.04,6.031-1.04,6.031l-3.381,12.447s-3.121,2.823-3.121,4.106-2.471,4.876-2.471,4.876-3.771,6.159,0,5.261a11.83,11.83,0,0,0,3.807-1.914l0,.092q-.008.339-.014.688c-.107,6.708.624,16.147,5.571,16.147,7.672,0,27.438,9.11,27.438,9.11,4.031,3.08,9.493,2.053,9.493,2.053s-9.623,9.624-9.363,13.6-5.461,10.522-5.461,10.522L755.227,604.7a26.475,26.475,0,0,0,1.268,7.075c-.084.073-.171.143-.253.219-6.8,6.208-7.386,18.5-7.386,18.5l-1.56,6.287,23.667,10.394s30.688.642,36.02-.77,4.161-7.314-2.861-8.469-8.712-4.234-11.053-5.646c-1.579-.952-7.186-7.106-10.665-11.007l-.154-.172.806-4.475c1.56-.77,3.9-8.469,3.9-8.469s0-3.08,1.56-3.978,4.811-10.137,4.811-10.137,7.022-11.677,6.632-13.216,5.071-9.367,5.071-9.367,9.232-8.982,8.842-10.586,7.412-9.816,7.412-9.816a26.037,26.037,0,0,0,6.9-7.951c.7-.113,1.456-.234,2.252-.367,10.21-1.673,27.177-4.7,29.073-5.541,2.6-1.155,2.081,3.978,1.04,8.341s-1.82,25.278-.65,27.973.65,7.057.65,7.057L859,604.055l1.04,5s-3.511,2.823-2.081,4.491.13,8.854.13,8.854c.123-.046.268-.09.432-.134-.125.282-.244.571-.351.875-2.016,5.746-.861,15.169-.861,15.169v7.442s36.02.642,43.952.642,18.855-3.849,19.505-6.929S911.658,633.825,908.018,633.7ZM805.572,500.114l-2.36.2a19.587,19.587,0,0,1,2.36-.2Zm14.385-98.491c.33-1.484.731-3.081,1.173-4.719Zm4.449,102.09a9.546,9.546,0,0,1-7.006.008l-.016-.008s.13-8.982,1.17-12.7,2.471-10.522,2.471-10.522a137.744,137.744,0,0,1,2.341-13.6c1.17-4.234,5.722-27.845,8.062-29.384s3.641,1.155,3.641,1.155.35-.007.936-.072q.165.369.373.785c2.775,5.607,10.915,17.122,10.915,17.122a18.75,18.75,0,0,1,5.982,5.9c2.211,3.721,2.861,12.447,2.861,12.447s4.941,19.376,7.282,22.07c1.17,1.347.65,2.151-.161,2.615a11.522,11.522,0,0,0-4.1,3.79c-.333.529-.686,1.109-1.044,1.728-.895-.207-1.7-.422-2.363-.647-6.372-2.14-27.828-2.225-31.339-.686Z" transform="translate(-295.145 -149.703)" fill="url(#linear-gradient)"/>
  <path id="Caminho_459" data-name="Caminho 459" d="M922.964,804.312v7.38s35.246.636,43.008.636,18.45-3.817,19.086-6.871-8.907-5.6-12.47-5.726-3.69-1.527-8.271-3.945c-2.586-1.364-6.512-5.326-9.439-8.515-2.257-2.461-3.922-4.464-3.922-4.464s-18.959-.382-24.43,2.672a6.619,6.619,0,0,0-2.72,3.789C921.834,794.967,922.964,804.312,922.964,804.312Z" transform="translate(-361.658 -315.623)" fill="#434175"/>
  <path id="Caminho_460" data-name="Caminho 460" d="M924.472,789.269c3.975-1.382,27.248-1.919,31.072-2-2.257-2.461-3.922-4.464-3.922-4.464s-18.959-.382-24.43,2.672A6.623,6.623,0,0,0,924.472,789.269Z" transform="translate(-362.323 -315.623)" opacity="0.1"/>
  <path id="Caminho_461" data-name="Caminho 461" d="M763.77,605.131s.735.445,2.056,1.242c.239.143.5.3.771.466.837.506,1.842,1.11,2.99,1.8,15.992,9.637,59.615,35.763,62,35.554.626-.053,2.507-.336,5.1-.758.687-.112,1.425-.232,2.2-.364,9.991-1.659,26.594-4.66,28.449-5.494,2.545-1.145,2.036,3.945,1.018,8.271s-1.781,25.067-.636,27.739.636,7,.636,7l-1.527,23.285,1.018,4.962s-3.436,2.8-2.036,4.453.127,8.78.127,8.78c4.072-1.527,31.683-2.036,31.683-2.036s-1.145-10.179-.127-12.6.255-16.8.255-16.8.636-10.943-.509-13.488.382-18.832.382-18.832,1.018-9.67,1.272-29.393-11.2-20.359-11.2-20.359-1.527-.12-3.845-.344a170.546,170.546,0,0,1-17.142-2.364,28.568,28.568,0,0,1-3.061-.812c-6.235-2.122-27.23-2.206-30.665-.68a9.227,9.227,0,0,1-6.856.008l-.015-.008-2.672-4.326-25.522,2.176-2.705.232-25.125,2.143-1.728.148Z" transform="translate(-303.875 -249.156)" fill="#565387"/>
  <path id="Caminho_462" data-name="Caminho 462" d="M922.375,627.975c7.413,3.614,14.488-9.2,17.786-16.427a170.562,170.562,0,0,1-17.142-2.364C919.7,614.757,915.268,624.512,922.375,627.975Z" transform="translate(-360.178 -252.481)" opacity="0.1"/>
  <path id="Caminho_463" data-name="Caminho 463" d="M889.552,495.526a7.774,7.774,0,0,0,.9,2.489c2.715,5.56,10.681,16.979,10.681,16.979a18.446,18.446,0,0,1,5.853,5.853c2.163,3.69,2.8,12.342,2.8,12.342s4.835,19.213,7.126,21.886c1.145,1.336.636,2.133-.158,2.593a11.333,11.333,0,0,0-4.016,3.759c-3.336,5.365-8.663,16-1.171,19.656,10.179,4.962,19.722-21.046,19.722-21.046s-1.909-18.45-2.418-21.631-3.563-16.287-3.563-16.287-2.163-5.6-3.436-9.543-5.09-8.525-5.09-8.525-6.871-13.742-8.78-15.778c-.886-.944-2.128-2.135-3.2-3.14-1.244-1.163-2.267-2.077-2.267-2.077S889.425,492.473,889.552,495.526Z" transform="translate(-349.623 -206.608)" fill="#ee8e9e"/>
  <path id="Caminho_464" data-name="Caminho 464" d="M753.971,798.132l23.158,10.307s30.029.636,35.246-.763,4.072-7.253-2.8-8.4-8.525-4.2-10.816-5.6c-1.545-.944-7.031-7.047-10.436-10.915-1.639-1.863-2.8-3.209-2.8-3.209s-4.453-11.833-16.8-9.161a12.646,12.646,0,0,0-6.006,3.161c-6.65,6.156-7.227,18.343-7.227,18.343Z" transform="translate(-300.311 -310.971)" fill="#434175"/>
  <path id="Caminho_465" data-name="Caminho 465" d="M768.213,606.548c.837.506,1.842,1.11,2.99,1.8,15.992,9.637,59.615,35.763,62,35.554.626-.053,2.507-.336,5.1-.758.687-.112,1.425-.232,2.2-.364.03-.048.058-.1.086-.145a29.245,29.245,0,0,0,2.914-7.131c2.672-10.179-10.561-17.941-10.561-17.941l-2.8-2.176c-3.181-5.357-26.085-10.421-26.085-10.421l-2.952-1.982-1.575-1.059-.415-.277-3.583-2.407L777.6,600.514l-5.329,3.425-.562.361-1.977,1.272Z" transform="translate(-305.491 -248.865)" opacity="0.1"/>
  <path id="Caminho_466" data-name="Caminho 466" d="M767.729,773.555C772.6,790.4,792.948,784.9,792.948,784.9l.379-2.135c-1.639-1.863-2.8-3.209-2.8-3.209s-4.453-11.833-16.8-9.161A12.646,12.646,0,0,0,767.729,773.555Z" transform="translate(-305.315 -310.971)" opacity="0.1"/>
  <path id="Caminho_467" data-name="Caminho 467" d="M756.25,635.287c7.507,0,26.848,9.034,26.848,9.034,3.944,3.054,9.289,2.036,9.289,2.036s-9.416,9.543-9.161,13.488-5.344,10.434-5.344,10.434l-17.3,34.228c1.272,24.3,26.212,17.559,26.212,17.559l1.018-5.726c1.527-.763,3.817-8.4,3.817-8.4s0-3.054,1.527-3.944,4.708-10.052,4.708-10.052,6.871-11.579,6.489-13.106,4.962-9.289,4.962-9.289,9.034-8.907,8.652-10.5,7.253-9.734,7.253-9.734a25.7,25.7,0,0,0,6.757-7.884,29.252,29.252,0,0,0,2.914-7.131c2.153-8.2-6.011-14.829-9.271-17.1-.789-.55-1.29-.845-1.29-.845l-2.8-2.176c-1.445-2.438-6.973-4.812-12.569-6.678-4.036-1.346-8.11-2.428-10.714-3.077-1.723-.428-2.8-.667-2.8-.667l-2.952-1.982-1.038-.7-.952-.639-3.583-2.407-7.983.565-9.958.708-5.329,3.425-2.54,1.634-9.945,6.393s-.262,2.448-.346,5.734c-.005.254-.01.511-.015.776C750.694,625.927,751.41,635.287,756.25,635.287Z" transform="translate(-299.154 -249.156)" fill="#565387"/>
  <path id="Caminho_468" data-name="Caminho 468" d="M819.562,424.4l2.672,9.543s4.708,16.414,5.217,17.559,12.851,12.724,13.36,12.979,7.23,4.072,7.23,4.072.532-20.995.023-27.1a17.439,17.439,0,0,1,.331-4,150.458,150.458,0,0,1,4.568-17.211c1.425-4.53,2.608-7.927,2.608-7.927s-29.775-1.272-28.757,1.654a10.456,10.456,0,0,1-.112,4.812c-.613,3.051-1.9,6.113-2.687,5.876a10.655,10.655,0,0,0-2.359-.262C820.557,424.356,819.562,424.4,819.562,424.4Z" transform="translate(-324.167 -180.777)" fill="#ee8e9e"/>
  <path id="Caminho_469" data-name="Caminho 469" d="M830.785,418.775a22.022,22.022,0,0,0,26.26,1.461c1.425-4.53,2.608-7.927,2.608-7.927s-29.775-1.272-28.757,1.654A10.452,10.452,0,0,1,830.785,418.775Z" transform="translate(-328.249 -180.777)" opacity="0.1"/>
  <path id="Caminho_470" data-name="Caminho 470" d="M862.392,382.295a21.927,21.927,0,0,1-1.1,6.872,17.981,17.981,0,0,1-.636,1.686,22.015,22.015,0,0,1-40.9-.853,21.7,21.7,0,0,1-1.374-7.3c-.013-.134-.013-.274-.013-.407a22.013,22.013,0,1,1,44.025,0Z" transform="translate(-323.732 -161.954)" fill="#ee8e9e"/>
  <path id="Caminho_471" data-name="Caminho 471" d="M819.562,431.452,822.234,441s4.708,16.414,5.217,17.559,12.851,12.724,13.36,12.979,7.23,4.072,7.23,4.072.532-20.995.023-27.1a17.438,17.438,0,0,1,.331-4l-1.73,7.054.127,14.124,1.018.763-2.29,3.436v-2.545s-8.143-7.889-9.416-11.2-5.853-9.3-5.853-9.3-5.217-8.77-5.344-10.3c-.1-1.191-2.29-3.944-3.25-5.1C820.557,431.411,819.562,431.452,819.562,431.452Z" transform="translate(-324.167 -187.832)" opacity="0.1"/>
  <path id="Caminho_472" data-name="Caminho 472" d="M889.552,495.526a7.774,7.774,0,0,0,.9,2.489c2.782-.285,12.261-2.054,14.348-12.882-1.244-1.163-2.267-2.077-2.267-2.077S889.425,492.473,889.552,495.526Z" transform="translate(-349.623 -206.608)" opacity="0.1"/>
  <path id="Caminho_473" data-name="Caminho 473" d="M750.8,619.275c2.568-1.817,5.011-4.3,6.469-4.983,2.163-1.018,5.471-4.326,5.471-4.326s.84-.57,2.128-1.326c2.362-1.384,6.232-3.39,9.2-3.637,2.657-.221,11.482-.786,18.425-1.219,5.024-.315,9.06-.562,9.06-.562s8.271-2.927,11.833-1.018a37.394,37.394,0,0,0,8.016,2.927s0-.277.015-.756l-.015-.008-2.672-4.326L790.5,602.448l-3.583-2.407-17.941,1.272-5.329,3.425-4.6.392s.735.445,2.056,1.242l-9.945,6.393S750.86,615.608,750.8,619.275Z" transform="translate(-299.159 -249.156)" opacity="0.1"/>
  <path id="Caminho_474" data-name="Caminho 474" d="M744.035,558.655a11.516,11.516,0,0,0,3.726-1.9v0c2.563-1.815,5-4.285,6.454-4.97,2.163-1.018,5.471-4.326,5.471-4.326s6.744-4.581,11.325-4.962c1.249-.1,3.86-.285,7-.489,3.212-.214,6.97-.453,10.388-.664,1.97-.125,3.825-.242,5.392-.339l4.705-.29s8.271-2.927,11.833-1.018a37.386,37.386,0,0,0,8.016,2.927s.127-8.907,1.145-12.6,2.417-10.434,2.417-10.434,1.145-9.289,2.29-13.488,5.6-27.611,7.889-29.138,3.563,1.145,3.563,1.145,15.269-.255,15.523-17.05c0,0-7.125-7.126-7.634-8.907s-7.252-8.4-7.252-8.4-3.817-7.126-8.143-7.253a34.809,34.809,0,0,0-6.128.188l-3.67,14.953.127,14.124,1.018.763-2.29,3.436v-2.545s-8.143-7.889-9.416-11.2-5.853-9.3-5.853-9.3-5.217-8.77-5.344-10.3-3.69-5.619-3.69-5.619a9.29,9.29,0,0,0-2.163,0,2.315,2.315,0,0,1-.947-.132,12.742,12.742,0,0,0-6.357-.361c-4.4.914-11.093,2.586-12.928,4.586-2.8,3.054-6.871,5.98-11.452,18.7l24.685,8.907-2.112,4.016-19.646,37.338s-.651,1.061-1.535,2.448v0c-1.145,1.8-2.677,4.146-3.682,5.438-1.781,2.29-1.272,9.543-1.272,9.543s-.382,3.436-1.654,4.708-1.018,5.98-1.018,5.98l-3.308,12.343s-3.054,2.8-3.054,4.072-2.418,4.835-2.418,4.835S740.345,559.545,744.035,558.655Z" transform="translate(-296.101 -187.41)" fill="#434175"/>
  <path id="Caminho_475" data-name="Caminho 475" d="M943.781,646.435s-8.016,2.672-10.179,6.489S943.781,646.435,943.781,646.435Z" transform="translate(-365.551 -266.03)" opacity="0.1"/>
  <path id="Caminho_476" data-name="Caminho 476" d="M937.437,633.237c-.254.382-10.979,11.143-10.307,13.742S937.437,633.237,937.437,633.237Z" transform="translate(-363.279 -261.229)" opacity="0.1"/>
  <path id="Caminho_477" data-name="Caminho 477" d="M843.309,645.235s-11.96,5.641-12.978,8.1S843.309,645.235,843.309,645.235Z" transform="translate(-328.064 -265.593)" opacity="0.1"/>
  <path id="Caminho_478" data-name="Caminho 478" d="M842.482,656.634s-10.794,4.581-12.268,5.726S842.482,656.634,842.482,656.634Z" transform="translate(-328.001 -269.739)" opacity="0.1"/>
  <path id="Caminho_479" data-name="Caminho 479" d="M837.268,671.623s-4.781,3.563-7.416.763S837.268,671.623,837.268,671.623Z" transform="translate(-327.749 -274.931)" opacity="0.1"/>
  <path id="Caminho_480" data-name="Caminho 480" d="M858.045,526.051c-.257.382-16.162,29.011-20.361,31.174S858.045,526.051,858.045,526.051Z" transform="translate(-330.582 -222.245)" opacity="0.1"/>
  <path id="Caminho_481" data-name="Caminho 481" d="M858.3,543.049c0,.636-15.524,33.846-18.068,34.228S858.3,543.049,858.3,543.049Z" transform="translate(-331.607 -228.427)" opacity="0.1"/>
  <path id="Caminho_482" data-name="Caminho 482" d="M769.763,576.644s-7.5,16.01-10.434,16.923S769.763,576.644,769.763,576.644Z" transform="translate(-302.107 -240.646)" opacity="0.1"/>
  <path id="Caminho_483" data-name="Caminho 483" d="M771.438,565.446s-2.585,5.6-4.155,5.6S771.438,565.446,771.438,565.446Z" transform="translate(-305.054 -236.573)" opacity="0.1"/>
  <path id="Caminho_484" data-name="Caminho 484" d="M862.392,382.295a21.929,21.929,0,0,1-1.1,6.872,17.994,17.994,0,0,1-.636,1.686,6.473,6.473,0,0,1-3.086-1.355,7.641,7.641,0,0,1-2.31-2.469,30.933,30.933,0,0,1-1.126-3.213,7.475,7.475,0,0,0-6.038-4.575c.732,1.247-.433,2.959-1.864,3.181a4.552,4.552,0,0,1-3.811-1.7c-.986-1.063-1.7-2.354-2.679-3.417a4.553,4.553,0,0,0-3.811-1.7c-1.266.191-2.246,1.158-3.309,1.877s-2.539,1.2-3.563.433c-.573-.426-.853-1.152-1.4-1.616-1.406-1.177-3.595.038-4.632,1.559-1.6,2.354-2.571,3.78-4.645,4.842-.013-.134-.013-.274-.013-.407a22.013,22.013,0,1,1,44.025,0Z" transform="translate(-323.732 -161.954)" opacity="0.1"/>
  <path id="Caminho_485" data-name="Caminho 485" d="M820.176,366.506c1.035-1.522,3.223-2.739,4.633-1.556.547.459.827,1.185,1.4,1.615,1.023.771,2.507.287,3.565-.435s2.04-1.684,3.306-1.877a4.541,4.541,0,0,1,3.811,1.7c.983,1.063,1.7,2.354,2.68,3.417a4.538,4.538,0,0,0,3.811,1.7c1.432-.219,2.6-1.932,1.863-3.18a7.477,7.477,0,0,1,6.037,4.575,30.979,30.979,0,0,0,1.127,3.213,7.621,7.621,0,0,0,2.313,2.467,5.475,5.475,0,0,0,4.009,1.329c1.426-.248,2.634-1.883,1.971-3.17.456.692,1.434-.272,1.582-1.088a11.639,11.639,0,0,0-.294-5.37c-.7-2.365-2.178-4.711-1.61-7.112.45-1.9,2.075-3.266,3.061-4.952a8.952,8.952,0,0,0-.842-9.75,11.086,11.086,0,0,0-9.159-4.014,15.146,15.146,0,0,1-2.88.054,9.471,9.471,0,0,1-4.222-2.259l-10.658-8.32a13.116,13.116,0,0,0-4.029-2.427,4.453,4.453,0,0,0-4.427.809c-2,2-.727,5.43-1.528,8.136-.694,2.344-2.928,3.932-5.24,4.724s-4.787.965-7.163,1.539a3.93,3.93,0,0,0-1.917.893,3.791,3.791,0,0,0-.833,2.705,14.745,14.745,0,0,0,1.655,6.881c1.234,2.374,3.19,4.813,2.5,7.4a9.427,9.427,0,0,1-2.349,3.49c-2.014,2.316-2.694,5.739,1.1,4.544C817.092,371.027,818.116,369.534,820.176,366.506Z" transform="translate(-320.882 -151.237)" fill="#434175"/>
  <g id="Grupo_150" data-name="Grupo 150" transform="translate(489.662 197.627)" opacity="0.1">
    <path id="Caminho_486" data-name="Caminho 486" d="M862.393,390.364c-.148.815-1.127,1.78-1.582,1.087.663,1.287-.544,2.921-1.971,3.17a5.475,5.475,0,0,1-4.009-1.329,7.621,7.621,0,0,1-2.312-2.467,30.978,30.978,0,0,1-1.127-3.213,7.477,7.477,0,0,0-6.037-4.575c.736,1.248-.431,2.961-1.863,3.18a4.539,4.539,0,0,1-3.812-1.7c-.984-1.063-1.7-2.353-2.68-3.417a4.541,4.541,0,0,0-3.811-1.7c-1.266.193-2.248,1.155-3.306,1.877s-2.542,1.205-3.565.435c-.571-.43-.85-1.156-1.4-1.615-1.41-1.183-3.6.034-4.633,1.556-2.06,3.028-3.084,4.521-6.735,5.673-1.2.378-1.948.293-2.351-.072-.8,1.84-.436,3.46,2.351,2.581,3.651-1.152,4.675-2.644,6.735-5.673,1.035-1.522,3.223-2.739,4.633-1.556.547.459.827,1.185,1.4,1.615,1.023.771,2.507.287,3.565-.435s2.04-1.684,3.306-1.877a4.541,4.541,0,0,1,3.811,1.7c.983,1.063,1.7,2.354,2.68,3.417a4.538,4.538,0,0,0,3.812,1.7c1.432-.219,2.6-1.932,1.863-3.18a7.477,7.477,0,0,1,6.037,4.575,30.988,30.988,0,0,0,1.127,3.213,7.62,7.62,0,0,0,2.313,2.467,5.475,5.475,0,0,0,4.009,1.329c1.426-.248,2.634-1.883,1.971-3.17.456.692,1.434-.272,1.582-1.087a11.616,11.616,0,0,0,.115-3.328C862.478,389.819,862.442,390.092,862.393,390.364Z" transform="translate(-810.653 -366.524)"/>
    <path id="Caminho_487" data-name="Caminho 487" d="M814.673,372.049c.01-.033.024-.063.033-.1.692-2.584-1.264-5.024-2.5-7.4a14.748,14.748,0,0,1-1.582-5.374,7.147,7.147,0,0,0-.073,1,14.745,14.745,0,0,0,1.654,6.881A25.927,25.927,0,0,1,814.673,372.049Z" transform="translate(-810.553 -359.181)"/>
    <path id="Caminho_488" data-name="Caminho 488" d="M891.864,367.611c-.986,1.686-2.611,3.051-3.061,4.952a5.525,5.525,0,0,0,.023,2.438c.474-1.863,2.065-3.217,3.038-4.882a8.362,8.362,0,0,0,.98-5.372,7.872,7.872,0,0,1-.98,2.863Z" transform="translate(-838.967 -361.206)"/>
  </g>
  <path id="Caminho_489" data-name="Caminho 489" d="M770.757,527.354v0a19.453,19.453,0,0,1,.389,2.13s10.052,23.54,11.325,24.939c.392.43,1.868,2.547,3.723,5.273.672.985,1.392,2.051,2.13,3.145,3.848,5.711,8.144,12.195,8.144,12.195l9.416,8.271s20.483,1.639,26.993-5.008c-.789-.55-1.29-.845-1.29-.845l-2.8-2.176c-1.445-2.438-6.973-4.812-12.569-6.678-5.156.038-9.373.456-9.373.456l-1.341-3.532-1.4-3.685-7.118-18.74s-4.591-23.667-6.118-24.812-1.145-4.708-1.145-4.708,2.8-10.052,1.781-11.452,1.654-11.706,1.654-11.706a10.677,10.677,0,0,0-1.222-2.855l-19.646,37.338S771.64,525.967,770.757,527.354Z" transform="translate(-306.417 -208.249)" opacity="0.1"/>
  <path id="Caminho_490" data-name="Caminho 490" d="M791.306,484.68s-2.672,10.307-1.654,11.706-1.781,11.452-1.781,11.452-.382,3.563,1.145,4.708,6.118,24.812,6.118,24.812l9.858,25.957s30.849-3.054,27.668,6.617-28.629,7.635-28.629,7.635l-9.416-8.271s-12.724-19.214-14-20.613-11.325-24.939-11.325-24.939-.509-4.708-2.672-7.126-.509-6.507-.509-6.507-2.672-30.775.127-34.465S788.379,473.61,791.306,484.68Z" transform="translate(-304.309 -203.269)" fill="#ee8e9e"/>
  <path id="Caminho_491" data-name="Caminho 491" d="M774.659,459.458l-8.016,4.835s-2.29,7.762-4.072,8.78c0,0,16.032-8.907,28.12,11.579,0,0-.382-2.672,1.272-3.945s1.272-6.744,1.272-6.744a22.039,22.039,0,0,0,1.145-2.672C795.526,468.492,789.545,452.46,774.659,459.458Z" transform="translate(-303.439 -197.388)" opacity="0.1"/>
  <path id="Caminho_492" data-name="Caminho 492" d="M774.259,458.658l-8.016,4.835s-2.29,7.762-4.072,8.78c0,0,16.032-8.907,28.12,11.579,0,0-.382-2.672,1.272-3.944s1.272-6.744,1.272-6.744a22.05,22.05,0,0,0,1.145-2.672C795.126,467.692,789.145,451.66,774.259,458.658Z" transform="translate(-303.294 -197.097)" fill="#434175"/>
  <ellipse id="Elipse_197" data-name="Elipse 197" cx="23.897" cy="25.366" rx="23.897" ry="25.366" transform="translate(375.619 433.664)" fill="#fbd56f"/>
  <ellipse id="Elipse_198" data-name="Elipse 198" cx="23.897" cy="25.366" rx="23.897" ry="25.366" transform="translate(375.619 433.664)" opacity="0.1"/>
  <ellipse id="Elipse_199" data-name="Elipse 199" cx="23.897" cy="24.801" rx="23.897" ry="24.801" transform="translate(379.743 434.793)" fill="#fbd56f"/>
  <path id="Caminho_494" data-name="Caminho 494" d="M533.94,730.386a25.726,25.726,0,0,1,3.2,5.842c.214.537.423,1.1.621,1.694,3.18,9.5-1.859,20.9-3.3,19.67s-5.929-3.51-6.8-.3-4.074,6.481-4.074,6.481c-5.841,5.875-11.129-.473-14.6-7.031a63.529,63.529,0,0,1-3.02-6.672c-.771-2.014-1.213-3.406-1.213-3.406l24.33-20.73A14.4,14.4,0,0,1,533.94,730.386Z" transform="translate(-209.671 -294.941)" fill="#fd622e"/>
  <path id="Caminho_495" data-name="Caminho 495" d="M473.677,751.218a25.732,25.732,0,0,1,3.2,5.842c.214.537.423,1.1.621,1.694,3.18,9.5-1.859,20.9-3.3,19.67s-5.929-3.51-6.8-.3-4.074,6.481-4.074,6.481c-5.841,5.875-11.129-.473-14.6-7.031a63.518,63.518,0,0,1-3.019-6.672c-.771-2.014-1.213-3.406-1.213-3.406l24.33-20.73A14.4,14.4,0,0,1,473.677,751.218Z" transform="translate(-187.753 -302.518)" fill="#fd622e"/>
  <path id="Caminho_496" data-name="Caminho 496" d="M348.324,778.814a25.728,25.728,0,0,1-1.265,6.539c-.178.55-.377,1.118-.6,1.7-3.617,9.346-14.769,14.9-15.093,13.038s-2.325-6.486-5.038-4.573-7.273,2.389-7.273,2.389c-8.247.8-8.266-7.466-6.752-14.73a63.524,63.524,0,0,1,1.933-7.063c.692-2.042,1.24-3.4,1.24-3.4l31.961-.432A14.4,14.4,0,0,1,348.324,778.814Z" transform="translate(-139.394 -311.802)" fill="#fd622e"/>
  <path id="Caminho_497" data-name="Caminho 497" d="M283.425,762.446a25.729,25.729,0,0,1-1.265,6.539c-.178.55-.377,1.118-.6,1.7-3.617,9.346-14.769,14.9-15.093,13.038s-2.325-6.486-5.038-4.573-7.273,2.389-7.273,2.389c-8.247.8-8.266-7.466-6.752-14.73a63.535,63.535,0,0,1,1.933-7.063c.692-2.042,1.24-3.4,1.24-3.4l31.961-.432A14.4,14.4,0,0,1,283.425,762.446Z" transform="translate(-115.79 -305.849)" fill="#fd622e"/>
  <path id="Caminho_498" data-name="Caminho 498" d="M533.94,730.386a25.726,25.726,0,0,1,3.2,5.842c.214.537.423,1.1.621,1.694,3.18,9.5-1.859,20.9-3.3,19.67s-5.929-3.51-6.8-.3-4.074,6.481-4.074,6.481c-5.841,5.875-11.129-.473-14.6-7.031a63.529,63.529,0,0,1-3.02-6.672c-.771-2.014-1.213-3.406-1.213-3.406l24.33-20.73A14.4,14.4,0,0,1,533.94,730.386Z" transform="translate(-209.671 -294.941)" opacity="0.2"/>
  <path id="Caminho_499" data-name="Caminho 499" d="M473.677,751.218a25.732,25.732,0,0,1,3.2,5.842c.214.537.423,1.1.621,1.694,3.18,9.5-1.859,20.9-3.3,19.67s-5.929-3.51-6.8-.3-4.074,6.481-4.074,6.481c-5.841,5.875-11.129-.473-14.6-7.031a63.518,63.518,0,0,1-3.019-6.672c-.771-2.014-1.213-3.406-1.213-3.406l24.33-20.73A14.4,14.4,0,0,1,473.677,751.218Z" transform="translate(-187.753 -302.518)" opacity="0.2"/>
  <path id="Caminho_500" data-name="Caminho 500" d="M348.324,778.814a25.728,25.728,0,0,1-1.265,6.539c-.178.55-.377,1.118-.6,1.7-3.617,9.346-14.769,14.9-15.093,13.038s-2.325-6.486-5.038-4.573-7.273,2.389-7.273,2.389c-8.247.8-8.266-7.466-6.752-14.73a63.524,63.524,0,0,1,1.933-7.063c.692-2.042,1.24-3.4,1.24-3.4l31.961-.432A14.4,14.4,0,0,1,348.324,778.814Z" transform="translate(-139.394 -311.802)" opacity="0.2"/>
  <path id="Caminho_501" data-name="Caminho 501" d="M283.425,762.446a25.729,25.729,0,0,1-1.265,6.539c-.178.55-.377,1.118-.6,1.7-3.617,9.346-14.769,14.9-15.093,13.038s-2.325-6.486-5.038-4.573-7.273,2.389-7.273,2.389c-8.247.8-8.266-7.466-6.752-14.73a63.535,63.535,0,0,1,1.933-7.063c.692-2.042,1.24-3.4,1.24-3.4l31.961-.432A14.4,14.4,0,0,1,283.425,762.446Z" transform="translate(-115.79 -305.849)" opacity="0.2"/>
  <path id="Caminho_502" data-name="Caminho 502" d="M467.232,457.694c0,85.365-28.878,154.566-162.141,154.566-89.548,0-158.827-22.25-162.141-154.566-2.137-85.338,72.593-154.566,162.141-154.566S467.232,372.329,467.232,457.694Z" transform="translate(-78.064 -141.167)" fill="#fd622e"/>
  <path id="Caminho_503" data-name="Caminho 503" d="M349.994,307.369h.019a.037.037,0,0,1-.014,0Z" transform="translate(-153.383 -142.709)" opacity="0.2"/>
  <path id="Caminho_504" data-name="Caminho 504" d="M350.362,307.133c.412-.066,1.226-.18,2.41-.27l-2.637.312q.057-.014.142-.028C350.306,307.142,350.329,307.137,350.362,307.133Z" transform="translate(-153.434 -142.525)" opacity="0.2"/>
  <path id="Caminho_505" data-name="Caminho 505" d="M471.69,369.093l-11.835,4.261a264.355,264.355,0,0,0-19.443-23.178A189.94,189.94,0,0,0,415.79,328.12c-30.3-22.458-53.741-23.031-61.481-22.454l17.79-2.092a144.642,144.642,0,0,1,47.762,17.265,157.785,157.785,0,0,1,28.7,21.2C464.053,356.42,471.69,369.093,471.69,369.093Z" transform="translate(-154.952 -141.329)" opacity="0.2"/>
  <path id="Caminho_506" data-name="Caminho 506" d="M366.238,381.032s-15.622-52.074-2.367-66.276c0,0,20.83-7.1,36.452,33.138Z" transform="translate(-156.49 -145.22)" opacity="0.2"/>
  <path id="Caminho_507" data-name="Caminho 507" d="M494.962,325.863s41.429-35.206,59.756-28.764c0,0,14.863,16.23-15.726,46.686Z" transform="translate(-206.108 -138.688)" fill="#fd622e"/>
  <path id="Caminho_508" data-name="Caminho 508" d="M494.962,325.863s41.429-35.206,59.756-28.764c0,0,14.863,16.23-15.726,46.686Z" transform="translate(-206.108 -138.688)" opacity="0.2"/>
  <path id="Caminho_509" data-name="Caminho 509" d="M633.869,560.225c0,45.885-32.927,82.135-63.909,82.135s-48.287-36.25-48.287-82.135,25.168-81.289,56.1-83.082C626.768,474.3,633.869,514.34,633.869,560.225Z" transform="translate(-215.823 -204.405)" fill="#fd622e"/>
  <path id="Caminho_510" data-name="Caminho 510" d="M633.869,560.225c0,45.885-32.927,82.135-63.909,82.135s-48.287-36.25-48.287-82.135,25.168-81.289,56.1-83.082C626.768,474.3,633.869,514.34,633.869,560.225Z" transform="translate(-215.823 -203.611)" opacity="0.2"/>
  <ellipse id="Elipse_201" data-name="Elipse 201" cx="10.415" cy="13.255" rx="10.415" ry="13.255" transform="translate(341.828 349.429)" fill="#fff"/>
  <ellipse id="Elipse_202" data-name="Elipse 202" cx="10.415" cy="13.255" rx="10.415" ry="13.255" transform="translate(378.753 338.067)" fill="#fff"/>
  <path id="Caminho_511" data-name="Caminho 511" d="M485.727,340.047a18.9,18.9,0,0,1-2.021,8.55,18.167,18.167,0,0,1-8.152,8.133,189.932,189.932,0,0,0-24.622-22.056A18.555,18.555,0,0,1,455,327.393a17.453,17.453,0,0,1,12.943-5.8C477.765,321.594,485.727,329.855,485.727,340.047Z" transform="translate(-190.094 -147.883)" fill="#fad46f"/>
</svg>
